<svg width="93" height="14" viewBox="0 0 93 14" fill="none" xmlns="http://www.w3.org/2000/svg">
<path d="M6.3491 13.716C5.6411 13.716 4.9631 13.656 4.3151 13.536C3.6671 13.428 3.0851 13.26 2.5691 13.032C2.0651 12.804 1.6631 12.504 1.3631 12.132C1.0631 11.76 0.913103 11.322 0.913103 10.818C0.913103 10.758 0.913103 10.704 0.913103 10.656C0.925103 10.608 0.937103 10.56 0.949103 10.512H3.8291C3.8291 10.536 3.8231 10.566 3.8111 10.602C3.8111 10.638 3.8111 10.668 3.8111 10.692C3.8111 10.968 3.9311 11.19 4.1711 11.358C4.4111 11.526 4.7231 11.652 5.1071 11.736C5.5031 11.808 5.9231 11.844 6.3671 11.844C6.7871 11.844 7.1951 11.82 7.5911 11.772C7.9991 11.724 8.3351 11.634 8.5991 11.502C8.8631 11.358 8.9951 11.142 8.9951 10.854C8.9951 10.566 8.8391 10.356 8.5271 10.224C8.2151 10.092 7.7771 9.996 7.2131 9.936C6.6611 9.864 6.0131 9.774 5.2691 9.666C4.7051 9.582 4.1771 9.474 3.6851 9.342C3.2051 9.21 2.7791 9.042 2.4071 8.838C2.0471 8.622 1.7651 8.346 1.5611 8.01C1.3571 7.674 1.2551 7.26 1.2551 6.768C1.2551 6.24 1.3811 5.79 1.6331 5.418C1.8851 5.034 2.2391 4.722 2.6951 4.482C3.1631 4.242 3.7211 4.068 4.3691 3.96C5.0171 3.852 5.7311 3.798 6.5111 3.798C7.1951 3.798 7.8371 3.852 8.4371 3.96C9.0491 4.068 9.5831 4.236 10.0391 4.464C10.4951 4.692 10.8551 4.974 11.1191 5.31C11.3831 5.646 11.5151 6.036 11.5151 6.48C11.5151 6.528 11.5151 6.576 11.5151 6.624C11.5151 6.672 11.5091 6.714 11.4971 6.75H8.6171V6.66C8.6171 6.42 8.5151 6.228 8.3111 6.084C8.1071 5.94 7.8431 5.838 7.5191 5.778C7.1951 5.706 6.8471 5.67 6.4751 5.67C6.3431 5.67 6.1451 5.676 5.8811 5.688C5.6171 5.7 5.3411 5.73 5.0531 5.778C4.7771 5.826 4.5431 5.904 4.3511 6.012C4.1591 6.12 4.0631 6.276 4.0631 6.48C4.0631 6.732 4.2131 6.918 4.5131 7.038C4.8131 7.158 5.2031 7.248 5.6831 7.308C6.1751 7.368 6.7031 7.434 7.2671 7.506C7.8671 7.578 8.4371 7.668 8.9771 7.776C9.5291 7.884 10.0151 8.046 10.4351 8.262C10.8671 8.466 11.2031 8.748 11.4431 9.108C11.6831 9.468 11.8031 9.936 11.8031 10.512C11.8031 11.112 11.6771 11.622 11.4251 12.042C11.1731 12.45 10.8071 12.78 10.3271 13.032C9.8591 13.272 9.2831 13.446 8.5991 13.554C7.9271 13.662 7.1771 13.716 6.3491 13.716ZM12.8758 13.5V4.014H15.1438L15.3418 5.616H15.5038C15.8518 5.16 16.2418 4.8 16.6738 4.536C17.1178 4.272 17.5858 4.086 18.0778 3.978C18.5818 3.858 19.0738 3.798 19.5538 3.798C20.4538 3.798 21.2038 3.942 21.8038 4.23C22.4158 4.506 22.8718 4.932 23.1718 5.508C23.4718 6.084 23.6218 6.81 23.6218 7.686V13.5H20.8138V8.136C20.8138 7.764 20.7598 7.446 20.6518 7.182C20.5438 6.906 20.3938 6.684 20.2018 6.516C20.0098 6.348 19.7698 6.228 19.4818 6.156C19.2058 6.072 18.8938 6.03 18.5458 6.03C18.0418 6.03 17.5738 6.138 17.1418 6.354C16.7098 6.558 16.3558 6.846 16.0798 7.218C15.8158 7.578 15.6838 8.004 15.6838 8.496V13.5H12.8758ZM30.8834 13.716C29.6234 13.716 28.5374 13.542 27.6254 13.194C26.7134 12.834 26.0054 12.288 25.5014 11.556C25.0094 10.824 24.7634 9.894 24.7634 8.766C24.7634 7.662 25.0034 6.744 25.4834 6.012C25.9754 5.268 26.6714 4.716 27.5714 4.356C28.4834 3.984 29.5514 3.798 30.7754 3.798C32.0594 3.798 33.1454 3.978 34.0334 4.338C34.9214 4.698 35.5934 5.232 36.0494 5.94C36.5054 6.648 36.7334 7.524 36.7334 8.568V9.396H27.7154C27.7514 9.948 27.9014 10.398 28.1654 10.746C28.4294 11.082 28.7954 11.328 29.2634 11.484C29.7434 11.64 30.3014 11.718 30.9374 11.718C31.2254 11.718 31.5254 11.688 31.8374 11.628C32.1614 11.556 32.4614 11.46 32.7374 11.34C33.0254 11.22 33.2654 11.07 33.4574 10.89C33.6494 10.698 33.7574 10.47 33.7814 10.206H36.6614C36.6614 10.71 36.5294 11.178 36.2654 11.61C36.0014 12.042 35.6174 12.414 35.1134 12.726C34.6094 13.038 33.9974 13.284 33.2774 13.464C32.5694 13.632 31.7714 13.716 30.8834 13.716ZM27.7334 7.686H33.7274C33.7274 7.374 33.6554 7.104 33.5114 6.876C33.3674 6.636 33.1574 6.438 32.8814 6.282C32.6174 6.114 32.3114 5.994 31.9634 5.922C31.6154 5.838 31.2374 5.796 30.8294 5.796C30.2414 5.796 29.7194 5.874 29.2634 6.03C28.8194 6.174 28.4654 6.39 28.2014 6.678C27.9494 6.954 27.7934 7.29 27.7334 7.686ZM41.5356 13.716C40.9596 13.716 40.4256 13.668 39.9336 13.572C39.4416 13.488 39.0096 13.344 38.6376 13.14C38.2656 12.924 37.9716 12.636 37.7556 12.276C37.5516 11.916 37.4496 11.46 37.4496 10.908C37.4496 10.152 37.6596 9.558 38.0796 9.126C38.4996 8.682 39.0876 8.364 39.8436 8.172C40.6116 7.98 41.5056 7.86 42.5256 7.812C43.5576 7.752 44.6796 7.722 45.8916 7.722V7.38C45.8916 6.984 45.7956 6.672 45.6036 6.444C45.4116 6.216 45.1176 6.054 44.7216 5.958C44.3376 5.85 43.8336 5.796 43.2096 5.796C42.7416 5.796 42.3096 5.832 41.9136 5.904C41.5296 5.964 41.2236 6.066 40.9956 6.21C40.7676 6.342 40.6536 6.516 40.6536 6.732V6.912H37.8276C37.8156 6.864 37.8036 6.822 37.7916 6.786C37.7916 6.738 37.7916 6.684 37.7916 6.624C37.7916 6.06 38.0016 5.568 38.4216 5.148C38.8416 4.716 39.4656 4.386 40.2936 4.158C41.1336 3.918 42.1716 3.798 43.4076 3.798C44.5596 3.798 45.5256 3.9 46.3056 4.104C47.0976 4.308 47.6976 4.644 48.1056 5.112C48.5136 5.58 48.7176 6.204 48.7176 6.984V10.962C48.7176 11.178 48.7596 11.352 48.8436 11.484C48.9396 11.604 49.0956 11.664 49.3116 11.664H50.2476V13.392C50.1036 13.452 49.8636 13.518 49.5276 13.59C49.1916 13.674 48.8196 13.716 48.4116 13.716C47.8596 13.716 47.4216 13.65 47.0976 13.518C46.7856 13.398 46.5576 13.23 46.4136 13.014C46.2696 12.786 46.1676 12.54 46.1076 12.276H45.9636C45.6276 12.576 45.2256 12.834 44.7576 13.05C44.3016 13.266 43.8036 13.428 43.2636 13.536C42.7236 13.656 42.1476 13.716 41.5356 13.716ZM42.2736 11.718C42.6096 11.718 42.9816 11.682 43.3896 11.61C43.8096 11.526 44.2116 11.412 44.5956 11.268C44.9796 11.112 45.2916 10.92 45.5316 10.692C45.7716 10.464 45.8916 10.188 45.8916 9.864V9.36C44.6076 9.36 43.5516 9.408 42.7236 9.504C41.8956 9.6 41.2776 9.75 40.8696 9.954C40.4616 10.158 40.2576 10.446 40.2576 10.818C40.2576 11.07 40.3536 11.262 40.5456 11.394C40.7496 11.514 41.0076 11.598 41.3196 11.646C41.6316 11.694 41.9496 11.718 42.2736 11.718ZM50.5879 13.5V0.467999H53.3959V8.136L58.1299 4.014H61.6219L57.5899 7.776L61.7659 13.5H58.4179L55.4479 9.414L53.3959 10.926V13.5H50.5879ZM67.3826 13.716C66.1226 13.716 65.0366 13.542 64.1246 13.194C63.2126 12.834 62.5046 12.288 62.0006 11.556C61.5086 10.824 61.2626 9.894 61.2626 8.766C61.2626 7.662 61.5026 6.744 61.9826 6.012C62.4746 5.268 63.1706 4.716 64.0706 4.356C64.9826 3.984 66.0506 3.798 67.2746 3.798C68.5586 3.798 69.6446 3.978 70.5326 4.338C71.4206 4.698 72.0926 5.232 72.5486 5.94C73.0046 6.648 73.2326 7.524 73.2326 8.568V9.396H64.2146C64.2506 9.948 64.4006 10.398 64.6646 10.746C64.9286 11.082 65.2946 11.328 65.7626 11.484C66.2426 11.64 66.8006 11.718 67.4366 11.718C67.7246 11.718 68.0246 11.688 68.3366 11.628C68.6606 11.556 68.9606 11.46 69.2366 11.34C69.5246 11.22 69.7646 11.07 69.9566 10.89C70.1486 10.698 70.2566 10.47 70.2806 10.206H73.1606C73.1606 10.71 73.0286 11.178 72.7646 11.61C72.5006 12.042 72.1166 12.414 71.6126 12.726C71.1086 13.038 70.4966 13.284 69.7766 13.464C69.0686 13.632 68.2706 13.716 67.3826 13.716ZM64.2326 7.686H70.2266C70.2266 7.374 70.1546 7.104 70.0106 6.876C69.8666 6.636 69.6566 6.438 69.3806 6.282C69.1166 6.114 68.8106 5.994 68.4626 5.922C68.1146 5.838 67.7366 5.796 67.3286 5.796C66.7406 5.796 66.2186 5.874 65.7626 6.03C65.3186 6.174 64.9646 6.39 64.7006 6.678C64.4486 6.954 64.2926 7.29 64.2326 7.686ZM74.4168 13.5V4.014H76.6848L76.8828 5.652H77.0268C77.1828 5.304 77.3928 4.992 77.6568 4.716C77.9328 4.428 78.2568 4.206 78.6288 4.05C79.0008 3.882 79.4208 3.798 79.8888 3.798C80.1048 3.798 80.3208 3.816 80.5368 3.852C80.7528 3.876 80.9508 3.918 81.1308 3.978V6.336H79.7448C79.2888 6.336 78.8988 6.414 78.5748 6.57C78.2628 6.714 78.0048 6.918 77.8008 7.182C77.6088 7.434 77.4648 7.722 77.3688 8.046C77.2728 8.358 77.2248 8.688 77.2248 9.036V13.5H74.4168ZM86.5862 13.716C85.8782 13.716 85.2002 13.656 84.5522 13.536C83.9042 13.428 83.3222 13.26 82.8062 13.032C82.3022 12.804 81.9002 12.504 81.6002 12.132C81.3002 11.76 81.1502 11.322 81.1502 10.818C81.1502 10.758 81.1502 10.704 81.1502 10.656C81.1622 10.608 81.1742 10.56 81.1862 10.512H84.0662C84.0662 10.536 84.0602 10.566 84.0482 10.602C84.0482 10.638 84.0482 10.668 84.0482 10.692C84.0482 10.968 84.1682 11.19 84.4082 11.358C84.6482 11.526 84.9602 11.652 85.3442 11.736C85.7402 11.808 86.1602 11.844 86.6042 11.844C87.0242 11.844 87.4322 11.82 87.8282 11.772C88.2362 11.724 88.5722 11.634 88.8362 11.502C89.1002 11.358 89.2322 11.142 89.2322 10.854C89.2322 10.566 89.0762 10.356 88.7642 10.224C88.4522 10.092 88.0142 9.996 87.4502 9.936C86.8982 9.864 86.2502 9.774 85.5062 9.666C84.9422 9.582 84.4142 9.474 83.9222 9.342C83.4422 9.21 83.0162 9.042 82.6442 8.838C82.2842 8.622 82.0022 8.346 81.7982 8.01C81.5942 7.674 81.4922 7.26 81.4922 6.768C81.4922 6.24 81.6182 5.79 81.8702 5.418C82.1222 5.034 82.4762 4.722 82.9322 4.482C83.4002 4.242 83.9582 4.068 84.6062 3.96C85.2542 3.852 85.9682 3.798 86.7482 3.798C87.4322 3.798 88.0742 3.852 88.6742 3.96C89.2862 4.068 89.8202 4.236 90.2762 4.464C90.7322 4.692 91.0922 4.974 91.3562 5.31C91.6202 5.646 91.7522 6.036 91.7522 6.48C91.7522 6.528 91.7522 6.576 91.7522 6.624C91.7522 6.672 91.7462 6.714 91.7342 6.75H88.8542V6.66C88.8542 6.42 88.7522 6.228 88.5482 6.084C88.3442 5.94 88.0802 5.838 87.7562 5.778C87.4322 5.706 87.0842 5.67 86.7122 5.67C86.5802 5.67 86.3822 5.676 86.1182 5.688C85.8542 5.7 85.5782 5.73 85.2902 5.778C85.0142 5.826 84.7802 5.904 84.5882 6.012C84.3962 6.12 84.3002 6.276 84.3002 6.48C84.3002 6.732 84.4502 6.918 84.7502 7.038C85.0502 7.158 85.4402 7.248 85.9202 7.308C86.4122 7.368 86.9402 7.434 87.5042 7.506C88.1042 7.578 88.6742 7.668 89.2142 7.776C89.7662 7.884 90.2522 8.046 90.6722 8.262C91.1042 8.466 91.4402 8.748 91.6802 9.108C91.9202 9.468 92.0402 9.936 92.0402 10.512C92.0402 11.112 91.9142 11.622 91.6622 12.042C91.4102 12.45 91.0442 12.78 90.5642 13.032C90.0962 13.272 89.5202 13.446 88.8362 13.554C88.1642 13.662 87.4142 13.716 86.5862 13.716Z" fill="black"/>
</svg>
